<svg preserveAspectRatio="none" viewBox="0 0 1440 251" xmlns="http://www.w3.org/2000/svg"><g fill="none" fill-rule="evenodd"><path d="M0 24h1440v72c-24.756 37.084-62.003 55.607-112 56-117.501-.393-195.677-128.007-276-128-133.466.01-142.308 143.592-223 147-64.892 1.624-83.239-84.746-132-117-25.332-17.568-78.398-.345-112 17-93.719 50.367-137.286 256.731-268 113-1.307-2.286-2.811 6.113-5 5-86.402-88.868-190.402-107.202-312-55V24z" fill="#FFF" opacity=".05"/><path d="M0 37h1310c-54.736 89.645-121.069 126.645-199 111-116.332-22.66-77.635-110.565-165-111-8.278.435-71.404.42-79 0-133.332.687-152.953 150.174-254 150-71.685.174-96.443-127.609-144-134-18.457-2.22-77.1 62.071-111 80-119.88 61.837-151.478 153.618-212 102C86.05 182.753 121 92.45 0 80V37z" fill="#535069" opacity=".175"/><path d="M0 37h1440c-60.728 79.831-130.395 119.831-209 120-117.343-.253-170-102.857-251-103-132.543.16-159.276 144.992-260 145-100.724-.008-168.182-117.021-262-67-94.251 50.292-89.652 124.44-228 85C123.698 169.274 186.063 59.647 0 73V37z" fill="#FFF" opacity=".175"/><path d="M0 37h1440c-52.153 60.028-117.486 90.028-196 90-117.48.042-183-72.844-264-73-132.543.173-159.276 118.43-260 118-100.724.43-190.532-99.212-285-49-93.6 49.964-81.902 95.925-172 84-83.711-10.778-113.054-83.53-139-105C98.85 81.628 58.606 87.53 0 78V37z" fill="#D7D7D7"/><path d="M0 0h1440v36c-58.82 66.995-127.486 100.328-206 100-117.48.492-176.088-98.047-256.889-98.501C844.37 37.97 820.724 171.89 720 172c-100.724-.11-166.016-114.825-260-65-94.085 50.352-139.027 172.009-227 115C145.092 165.426 137.606 91.049 0 79V0z" fill="#FAFAFA"/></g></svg>