<svg preserveAspectRatio="none" viewBox="0 0 1440 190" xmlns="http://www.w3.org/2000/svg"><g fill="none" fill-rule="evenodd"><path d="M1 71.17c104.064 60 242.828 90 416.29 90C677.484 161.17 777.876 2.944 1028.24.3c166.91-1.76 304.498 21.861 412.76 70.87v100H1v-100z" fill="#FFF" opacity=".288"/><path d="M0 72.076C104.064 132.026 242.828 162 416.29 162 676.484 162 750 34.77 1025.322 32.152 1208.87 30.406 1347.096 43.714 1440 72.076v118.251H0V72.076z" fill="#FAFAFA"/><path d="M417.123 160.84C677.235 160.84 750.764 33.617 1026 31 703.839 42.753 628.373 188.178 417.123 188 276.289 187.88 137.58 148.854 1 70.92c104.007 59.946 242.714 89.92 416.123 89.92z" fill="#F1F1F1"/></g></svg>